<svg xmlns="http://www.w3.org/2000/svg" viewBox="0 0 420 96" role="img" aria-label="mydentalplatform">
  <defs>
    <linearGradient id="brandMarkBg" x1="0%" y1="0%" x2="100%" y2="100%">
      <stop offset="0%" stop-color="#091426"/>
      <stop offset="100%" stop-color="#102343"/>
    </linearGradient>
    <linearGradient id="brandMarkGlow" x1="0%" y1="0%" x2="100%" y2="100%">
      <stop offset="0%" stop-color="#3EE0C4"/>
      <stop offset="100%" stop-color="#2B6BFF"/>
    </linearGradient>
    <linearGradient id="brandWord" x1="0%" y1="0%" x2="100%" y2="0%">
      <stop offset="0%" stop-color="#14B8A6"/>
      <stop offset="100%" stop-color="#2563EB"/>
    </linearGradient>
  </defs>
  <rect x="6" y="8" width="64" height="64" rx="18" fill="url(#brandMarkBg)"/>
  <circle cx="24" cy="24" r="13" fill="#1DD3B0" opacity="0.18"/>
  <path d="M22 41c0-10.6 7.1-18.2 16-18.2S54 30.4 54 41" fill="none" stroke="url(#brandMarkGlow)" stroke-linecap="round" stroke-width="5"/>
  <rect x="24" y="37" width="7.5" height="13.5" rx="3.75" fill="#F7FBFF"/>
  <rect x="34.25" y="31.5" width="7.5" height="19" rx="3.75" fill="#9CEAFF"/>
  <rect x="44.5" y="37" width="7.5" height="13.5" rx="3.75" fill="#F7FBFF"/>
  <path d="M26 48.5c3.4 3 7.2 4.5 12 4.5s8.6-1.5 12-4.5" fill="none" stroke="#9CEAFF" stroke-linecap="round" stroke-width="2.5"/>
  <g font-family="'Plus Jakarta Sans', 'Segoe UI', Arial, sans-serif" letter-spacing="-0.03em">
    <text x="92" y="41" fill="#0F172A" font-size="30" font-weight="800">mydental</text>
    <text x="243" y="41" fill="url(#brandWord)" font-size="30" font-weight="800">platform</text>
    <text x="92" y="64" fill="#64748B" font-size="12.5" font-weight="600">Websites, booking, and AI reception for modern dental clinics</text>
  </g>
</svg>
