<svg xmlns="http://www.w3.org/2000/svg" viewBox="0 0 32 32">
  <defs>
    <linearGradient id="bg" x1="0" y1="0" x2="1" y2="1">
      <stop offset="0%" stop-color="#3b82f6"/>
      <stop offset="100%" stop-color="#4f46e5"/>
    </linearGradient>
  </defs>
  <rect width="32" height="32" rx="8" fill="url(#bg)"/>
  <path d="M16 4.5c-2.4 0-4.2 1.5-5.1 3.4-.5.9-.7 2-.7 3 0 1.8.8 3.1.8 4.9 0 1.3.8 4.5 2 6 .4.5.9.1 1.1-.6.3-1.8.4-3.2 1.9-3.2s1.6 1.4 1.9 3.2c.2.7.7 1.1 1.1.6 1.2-1.5 2-4.7 2-6 0-1.8.8-3.1.8-4.9 0-1-.2-2.1-.7-3C20.2 6 18.4 4.5 16 4.5z" fill="white"/>
</svg>
