<svg xmlns="http://www.w3.org/2000/svg" viewBox="0 0 32 32">
  <defs>
    <linearGradient id="bg" x1="0" y1="0" x2="1" y2="1">
      <stop offset="0%" stop-color="#2563eb"/>
      <stop offset="100%" stop-color="#4f46e5"/>
    </linearGradient>
  </defs>
  <rect width="32" height="32" rx="8" fill="url(#bg)"/>
  <path d="M16 4.5c-2.2 0-3.8 1.1-4.8 2.7-.5.9-.8 1.9-.8 3 0 1.7.8 3 .8 4.8 0 1.3.8 4.3 2 5.9.4.5.9.1 1.1-.6.4-1.9.4-3.3 1.7-3.3s1.3 1.4 1.7 3.3c.2.7.7 1.1 1.1.6 1.2-1.6 2-4.6 2-5.9 0-1.8.8-3.1.8-4.8 0-1.1-.3-2.1-.8-3C19.8 5.6 18.2 4.5 16 4.5z" fill="white"/>
</svg>
