<svg xmlns="http://www.w3.org/2000/svg" width="1200" height="630" viewBox="0 0 1200 630" role="img" aria-label="mydentalplatform">
  <defs>
    <linearGradient id="bg" x1="0%" y1="0%" x2="100%" y2="100%">
      <stop offset="0%" stop-color="#081424"/>
      <stop offset="45%" stop-color="#102343"/>
      <stop offset="100%" stop-color="#0B1730"/>
    </linearGradient>
    <linearGradient id="glow" x1="0%" y1="0%" x2="100%" y2="100%">
      <stop offset="0%" stop-color="#3EE0C4"/>
      <stop offset="100%" stop-color="#2B6BFF"/>
    </linearGradient>
  </defs>
  <rect width="1200" height="630" fill="url(#bg)"/>
  <circle cx="1040" cy="70" r="220" fill="#0E7490" opacity="0.12"/>
  <circle cx="180" cy="580" r="260" fill="#2563EB" opacity="0.14"/>
  <circle cx="980" cy="540" r="160" fill="#14B8A6" opacity="0.1"/>
  <rect x="78" y="74" width="1044" height="482" rx="36" fill="rgba(255,255,255,0.04)" stroke="rgba(255,255,255,0.12)"/>
  <rect x="136" y="132" width="84" height="84" rx="24" fill="#091426" stroke="rgba(255,255,255,0.1)"/>
  <circle cx="160" cy="156" r="14" fill="#1DD3B0" opacity="0.18"/>
  <path d="M150 176c0-13.8 9.1-23.8 20.5-23.8S191 162.2 191 176" fill="none" stroke="url(#glow)" stroke-linecap="round" stroke-width="6"/>
  <rect x="152" y="171" width="9" height="17" rx="4.5" fill="#F7FBFF"/>
  <rect x="166" y="164" width="9" height="24" rx="4.5" fill="#9CEAFF"/>
  <rect x="180" y="171" width="9" height="17" rx="4.5" fill="#F7FBFF"/>
  <path d="M154 185c4 3.3 8.7 5 16.5 5s12.5-1.7 16.5-5" fill="none" stroke="#9CEAFF" stroke-linecap="round" stroke-width="3"/>
  <g font-family="'Plus Jakarta Sans', 'Segoe UI', Arial, sans-serif">
    <text x="248" y="184" fill="#F8FAFC" font-size="44" font-weight="800" letter-spacing="-0.04em">mydental</text>
    <text x="468" y="184" fill="url(#glow)" font-size="44" font-weight="800" letter-spacing="-0.04em">platform</text>
    <text x="136" y="262" fill="#D8E4F2" font-size="64" font-weight="800" letter-spacing="-0.05em">Websites, booking, and AI reception</text>
    <text x="136" y="334" fill="#F8FAFC" font-size="64" font-weight="800" letter-spacing="-0.05em">for modern dental clinics.</text>
    <text x="136" y="394" fill="#9FB2C9" font-size="27" font-weight="600">Launch faster. Look professional. Capture more appointments.</text>
  </g>
  <rect x="136" y="448" width="318" height="58" rx="29" fill="#F8FAFC"/>
  <text x="295" y="485" text-anchor="middle" font-family="'Plus Jakarta Sans', 'Segoe UI', Arial, sans-serif" font-size="24" font-weight="800" fill="#081424">mydentalplatform.com</text>
</svg>
